<?xml version="1.0" encoding="UTF-8"?>
<svg id="Calque_1" xmlns="http://www.w3.org/2000/svg" version="1.1" viewBox="60 110 500 500">
  <!-- Generator: Adobe Illustrator 29.8.9, SVG Export Plug-In . SVG Version: 2.1.1 Build 1)  -->
  <defs>
    <style>
      .st0, .st1 {
        fill: #1d1d1b;
      }

      .st2, .st3 {
        fill: #fff;
      }

      .st3 {
        fill-rule: evenodd;
        stroke-width: 3.5px;
      }

      .st3, .st4, .st5, .st1 {
        stroke: #000;
        stroke-miterlimit: 10;
      }

      .st4 {
        stroke-linecap: round;
      }

      .st4, .st5 {
        fill: none;
      }

      .st4, .st5, .st1 {
        stroke-width: 2px;
      }
    </style>
  </defs>
  <path class="st3" d="M310.8,373.8c-8.7,1.2-21.8-2.2-24.3-2.6-2.5-.4-3.6,2.1-5.5,1.7s-1.9,1.2-2.4,2.1-4.1,3.3-6.3,5.4c-4.2,3.9-28.2,21.2-31.7,24.3-3.5,3.1-5.2,5.5-7.7,6.5-2.5,1-2.5,1.2-4.1,1.1s-1.5,2.5-6.1,4.5c-4.6,2.1-8.3,4.8-10.3,5.3s-2.6-1-4.8-.9-3.6,0-8.2.2c-4.6.2-18.2,2.8-22.3,2.7-4,0-3.9-.6-7.6-.4-3.7.1-12.2,2.5-16.6,1.7-4.4-.8-5.2-1.3-5.2-1.3,0,0,2.6-.8,4.1-.9s18.2-4.1,20.4-4.9,3.8-1.5,5.3-1.6,27.1-2.3,29.9-2.9,3.4-.6,6.4-.5c3,0,6.3-4.5,8.4-5.9s2.6-3,4.2-4.5c1.5-1.6,3.5-2.2,6-3.4,2.5-1.2,31.4-25.9,30.6-27.5s3.9-3.3,5.9-3.5c1.9-.2,4-2.2,1.8-3.8s-3.8-2.2-7.1-2.5c-3.3-.3-4-3.3-4.8-3.5s-.7,3.6-1.3,4.6c-.6,1-5.8,3.2-9.5,4.8-3.7,1.6-5.9,2.6-7.5,3.8-1.5,1.2-4.4,0-6.9.6s-49.1,14.1-56.7,15.4c-7.6,1.3-7.9-1.5-7.9-1.5,0,0-3.4.7-8.2.3-4.8-.4-19.2-6-21.5-6.7-2.3-.8-1.6-2.1-4.6-3.1s-38.8-18.6-42.4-21.1c-3.6-2.5-3.3-2.7-3.3-4.2,0-1.5,0-1.3-2.2-3.8-2.3-2.6-4.1-9.5-5.2-14s-.6-8.5,0-10.8,1.2-.2,2.1,4.6,3.8,10.3,10.3,19c.3.4,4.1,1.9,6.8,3.6,2.8,1.7,38.4,15.2,46.7,19.4,4.3,2.2,4.2.6,6,2,1.8,1.4,4.7,2.6,14.4,7.1s19.3-8.6,30.8-11.2c11.4-2.5,45.2-15.6,49.6-17.7,4.4-2,8.4-2.7,8.2-4s-2.9.2-8,0c-5.1-.2-32.2,3.8-46.3,4.8s-48.7-2.4-50.9-2.6-2.5-.7-5.2-2.7c-6.9-5-15.1-11-18.1-15.2-2.9-4.2-13.4-22-18.9-28.5-5.5-6.4-15.3-27.5-17.2-32.5s-.4-5.4,0-6.9,0-2.9.5-4.5c.6-1.6,7.8-10.9,11.7-13.9s10.8-5.7,10.9-4.3-5,4.3-6.8,6.2-6,9.9-9.4,14.6,17.9,33,25.8,37.6c7.9,4.6,11.1,13.5,11.5,16.7,0,0,2.8,1.5,3.2,5.2.3,3.7,2.5,9.3,7,16.4,0,0,1.7-1.9,6.9-2.8s75.9-2.4,81.3-3.7c5.4-1.3,4.4-1.4,6.6-1.9s7.5,4.1,11.6,4.4,1.7-3.9,1.5-4-.7-2.5-.2-4.9c.3-1.2-11,2.1-18.4,1.5-7.4-.7-60.9-11.7-68.3-14.4-7.4-2.7-16.1-5.7-16.5-8.6-.3-2.9-2.4-3-4-5.9s-2-6.3-2.1-10.2c0-3.9,3.2-22.6,3-24.7-.3-2.1,0-2.8,3.1-3.1s-2.4-17.5-3.1-27.4c-.7-9.9,7.7-33.1,9.1-35.5,1.4-2.4,1.8-2.9,4.8-2.2s.3-1.8,14.7-6.4c14.4-4.7,15.5-4.1,20.1-4.2s.8,2.1-6.2,2.1c-7,0-18.7,11.1-20.4,12.7s-2.7,1.5-4.6,2,.5,4.1.5,6.9-3,17.9-3.4,28.6,1.4,25.7,1.5,28.6,1.5,4.3,1.1,6.4-5.4,12.6-8.5,20.6c-2.4,6.3,87.3,17,91.9,17.6s6,3.5,8.6,3.2,1.8-1.8.6-2.5-18.7-8.6-29.8-14.3c-11.2-5.7-20.5-15.2-22.8-16.1s-4.7-1.3-1.3-4.9c-1.9-1.5-6.8-8-7.6-15.5s2.2-20.1,34-36.6c31.8-16.5,51.7-14.7,60.2-15.1,8.6-.4,15.6,2.9,12.5,3.6s-4.8.6-6.5.6c-19.3.3-37.6,10.9-32.8,9.6,10.7-3,21.3-3.7,28.5-3.1,7.2.6,11.6,1.8,11.7,2.3s-3.5,1.5-8.2,2c-4.7.5-21.6,4.8-32.6,9.3s-12,8.1-13.9,10.6-1.7,4.4-4.8,7-17.2,9.7-23.4,10.9c-6.2,1.2-4.4,3.3-5,5.2s.4,2.6,3,2.6,10.3,6.1,15.5,9.9c5.2,3.8,15.7,9.4,18.7,10.7,3,1.3,3.3-.5,6.6,1.9s10.2,9.8,12.8,9.3"/>
  <path class="st3" d="M310.2,373.8c8.7,1.2,21.8-2.2,24.3-2.6,2.5-.4,3.6,2.1,5.5,1.7s1.9,1.2,2.4,2.1c.6.9,4.1,3.3,6.3,5.4,4.2,3.9,28.2,21.2,31.7,24.3,3.5,3.1,5.2,5.5,7.7,6.5,2.5,1,2.5,1.2,4.1,1.1s1.5,2.5,6.1,4.5c4.6,2.1,8.3,4.8,10.3,5.3s2.6-1,4.8-.9,3.6,0,8.2.2,18.2,2.8,22.3,2.7,3.9-.6,7.6-.4,12.2,2.5,16.6,1.7c4.4-.8,5.2-1.3,5.2-1.3,0,0-2.6-.8-4.1-.9-1.5,0-18.2-4.1-20.4-4.9-2.2-.8-3.8-1.5-5.3-1.6s-27.1-2.3-29.9-2.9-3.4-.6-6.4-.5-6.3-4.5-8.4-5.9-2.6-3-4.2-4.5-3.5-2.2-6-3.4c-2.5-1.2-31.4-25.9-30.6-27.5.8-1.6-3.9-3.3-5.9-3.5s-4-2.2-1.8-3.8c2.2-1.6,3.8-2.2,7.1-2.5s4-3.3,4.8-3.5.7,3.6,1.3,4.6,5.8,3.2,9.5,4.8c3.7,1.6,5.9,2.6,7.5,3.8s4.4,0,6.9.6c2.5.6,49.1,14.1,56.7,15.4s7.9-1.5,7.9-1.5c0,0,3.4.7,8.2.3,4.8-.4,19.2-6,21.5-6.7s1.6-2.1,4.6-3.1,38.8-18.6,42.4-21.1c3.6-2.5,3.3-2.7,3.3-4.2s0-1.3,2.2-3.8,4.1-9.5,5.2-14c1.2-4.5.6-8.5,0-10.8s-1.2-.2-2.1,4.6c-.9,4.8-3.8,10.3-10.3,19-.3.4-4.1,1.9-6.8,3.6s-38.4,15.2-46.7,19.4c-4.3,2.2-4.2.6-6,2-1.8,1.4-4.7,2.6-14.4,7.1-2.3,1.1-19.3-8.6-30.8-11.2-11.4-2.5-45.2-15.6-49.6-17.7-4.4-2-8.4-2.7-8.2-4,.3-1.3,2.9.2,8,0,5.1-.2,32.2,3.8,46.3,4.8s48.7-2.4,50.9-2.6,2.5-.7,5.2-2.7c6.9-5,15.1-11,18.1-15.2s13.4-22,18.9-28.5c5.5-6.4,15.3-27.5,17.2-32.5s.4-5.4,0-6.9c-.4-1.5,0-2.9-.5-4.5-.6-1.6-7.8-10.9-11.7-13.9-3.9-3-10.8-5.7-10.9-4.3-.1,1.4,5,4.3,6.8,6.2s6,9.9,9.4,14.6c.6.8-17.9,33-25.8,37.6s-11.1,13.5-11.5,16.7c0,0-2.8,1.5-3.2,5.2s-2.5,9.3-7,16.4c0,0-1.7-1.9-6.9-2.8s-75.9-2.4-81.3-3.7c-5.4-1.3-4.4-1.4-6.6-1.9s-7.5,4.1-11.6,4.4c-4.1.3-1.7-3.9-1.5-4s.7-2.5.2-4.9c-.3-1.2,11,2.1,18.4,1.5,7.4-.7,60.9-11.7,68.3-14.4,7.4-2.7,16.1-5.7,16.5-8.6.3-2.9,2.4-3,4-5.9,1.5-2.9,2-6.3,2.1-10.2,0-3.9-3.2-22.6-3-24.7.3-2.1,0-2.8-3.1-3.1s2.4-17.5,3.1-27.4-7.7-33.1-9.1-35.5-1.8-2.9-4.8-2.2-.3-1.8-14.7-6.4c-14.4-4.7-15.5-4.1-20.1-4.2s-.8,2.1,6.2,2.1c7,0,18.7,11.1,20.4,12.7s2.7,1.5,4.6,2-.5,4.1-.5,6.9c0,2.8,3,17.9,3.4,28.6s-1.4,25.7-1.5,28.6-1.5,4.3-1.1,6.4,5.4,12.6,8.5,20.6c2.4,6.3-87.3,17-91.9,17.6s-6,3.5-8.6,3.2-1.8-1.8-.6-2.5,18.7-8.6,29.8-14.3c11.2-5.7,20.5-15.2,22.8-16.1s4.7-1.3,1.3-4.9c1.9-1.5,6.8-8,7.6-15.5.8-7.5-2.2-20.1-34-36.6-31.8-16.5-51.7-14.7-60.2-15.1s-15.6,2.9-12.5,3.6,4.8.6,6.5.6c19.3.3,37.6,10.9,32.8,9.6-10.7-3-21.3-3.7-28.5-3.1-7.2.6-11.6,1.8-11.7,2.3s3.5,1.5,8.2,2,21.6,4.8,32.6,9.3c11,4.5,12,8.1,13.9,10.6,1.9,2.6,1.7,4.4,4.8,7,3.1,2.7,17.2,9.7,23.4,10.9,6.2,1.2,4.4,3.3,5,5.2.6,1.9-.4,2.6-3,2.6s-10.3,6.1-15.5,9.9c-5.2,3.8-15.7,9.4-18.7,10.7-3,1.3-3.3-.5-6.6,1.9-3.3,2.4-10.2,9.8-12.8,9.3"/>
  <g>
    <path class="st2" d="M363.1,394.6c-7.7,0-15.2-5.4-22.5-10.6-2-1.4-3.8-2.7-5.7-4-7.6-5-14-5-20.7-5-1.1,0-2.3,0-3.4,0h-1.5c-1.3,0-2.7-.1-4-.1-6.4,0-12,.9-18.5,5.2-1.9,1.2-3.7,2.5-5.7,4-7.3,5.2-14.8,10.6-22.5,10.6-.8,0-1.5,0-2.3-.2-10-1.5-16.6-12.7-18.6-31.5-2.1-19.5,2.1-31.3,12.3-34.9,3.7-21.5,9.8-42.7,28.7-53.6,7.7-4.4,18.3-9.5,32.2-9.5s24.5,5.1,32.2,9.5c18.9,10.9,25,32.1,28.7,53.6,10.3,3.7,14.4,15.4,12.3,34.9-2,18.9-8.6,30.1-18.6,31.5-.7.1-1.5.2-2.3.2Z"/>
    <path d="M310.8,266.7c12.8,0,23.1,4.6,31.3,9.3,18,10.4,24.3,31,28,53.4,11.3,3.3,13.9,16.7,12.1,33.4-1.8,16.7-7.4,28.6-17.1,30-.7,0-1.3.1-2,.1-9.1,0-18.5-8.5-27.3-14.2-9.4-6.2-17-5.2-25.1-5.4-1.9,0-3.7-.1-5.5-.1-6.1,0-12.3.7-19.5,5.5-8.7,5.7-18.1,14.2-27.3,14.2s-1.4,0-2-.1c-9.7-1.4-15.4-13.3-17.1-30-1.8-16.7.8-30.1,12.1-33.4,3.7-22.4,10-43,28-53.4,8.2-4.7,18.5-9.3,31.3-9.3M310.8,263.1c-14.4,0-25.8,5.6-33.1,9.8-19.3,11.1-25.8,33.2-29.4,53.8-5.4,2.3-9.2,6.7-11.2,13.2-1.9,5.9-2.3,13.7-1.3,23.1,2.1,19.8,9.3,31.5,20.1,33.1.8.1,1.7.2,2.5.2,8.3,0,16-5.5,23.6-10.9,2-1.4,3.8-2.7,5.6-3.9,6.2-4.1,11.5-4.9,17.6-4.9s2.6,0,3.9,0c.5,0,1,0,1.5,0,1.2,0,2.3,0,3.4,0,6.7,0,12.6,0,19.8,4.7,1.8,1.2,3.7,2.5,5.6,3.9,7.5,5.4,15.3,10.9,23.6,10.9s1.7,0,2.5-.2c10.9-1.6,18-13.4,20.1-33.1,1-9.4.6-17.2-1.3-23.1-2.1-6.5-5.8-11-11.2-13.2-3.6-20.6-10.1-42.8-29.4-53.8-7.3-4.2-18.6-9.8-33.1-9.8h0Z"/>
  </g>
  <path class="st5" d="M359.8,317.1"/>
  <path class="st5" d="M310.8,317.9c6,0,6.3-10.2,14.5-15.7,11.1-7.5,23.3-5.7,29.1.9,5.8,6.6,5.7,14.4,5.8,17.5.2,4,6.2,7,13.5,9.2"/>
  <path class="st5" d="M322.5,324.2c1.2-7.8,9.3-14.1,19.6-12.8s10.6,11.2,10,13c-1.5,4.4-3.4,12.1-13.4,12.1s-16.9-7.8-16.2-12.3Z"/>
  <path class="st5" d="M314.7,316c-4.7,10.7,3.3,18.3,7.8,22.9,5.4,5.5,13.4,7,11.6,14.9-1.1,4.7-6.8,7.4-9.5,6.4-2.7-1-2.9-6.2-7.5-6.4-4.6-.2-3.8,6.3-6.3,6.4"/>
  <path class="st4" d="M384.3,347.8c-2.8-10.7-11.2-15.2-18.6-16.4-7.3-1.2-12.4,5-11.5,15.2.5,5.7,2.3,18.9,12.8,25.5,10.5,6.5,11.2-11.2,10.5-15.9-.6-4.7-1.9-12.2-7.3-11.8-5.4.4-5.9,9.4-3.2,14.9"/>
  <path class="st1" d="M322.5,324.2c-.3-5.1,7.5-5.8,12.5-5.5,5.5.4,9.8,2.8,9.6,5.5-.2,2.7-2.1,10.5-8.2,9.3-6.1-1.2-13.5-3.3-13.9-9.3Z"/>
  <path class="st5" d="M261.9,317.1"/>
  <path class="st5" d="M262.9,310.2c6.7-26.4,20.1-26.6,29.5-24.6,9.4,2,14.6,14.8,18.4,14.8,3.9,0,9.1-12.9,18.4-14.8s22.8-1.8,29.5,24.6"/>
  <path class="st5" d="M310.8,317.9c-6,0-6.3-10.2-14.5-15.7-11.1-7.5-23.3-5.7-29.1.9s-5.7,14.4-5.8,17.5c-.2,4-4,5.9-11.3,8.1"/>
  <path class="st5" d="M262.9,311.4c-3.6-26.5,19.6-35.7,30-34.3s12.9,9.6,17.9,9.6c5.1,0,7.5-8.2,17.9-9.6s33.7,7.8,30,34.3"/>
  <path class="st5" d="M299.2,324.2c-1.2-7.8-9.3-14.1-19.6-12.8s-10.6,11.2-10,13c1.5,4.4,3.4,12.1,13.4,12.1s16.9-7.8,16.2-12.3Z"/>
  <path class="st5" d="M307,316c4.7,10.7-3.3,18.3-7.8,22.9-5.4,5.5-13.4,7-11.6,14.9s6.8,7.4,9.5,6.4c2.7-1,2.9-6.2,7.5-6.4,4.6-.2,3.8,6.3,6.3,6.4"/>
  <path class="st4" d="M236.7,348.9c2.8-10.7,12-16.3,19.3-17.4,7.3-1.2,12.4,5,11.5,15.2-.5,5.7-2.3,18.9-12.8,25.5-10.5,6.5-11.2-11.2-10.5-15.9s1.9-12.2,7.3-11.8c5.4.4,5.9,9.4,3.2,14.9"/>
  <path class="st1" d="M299.2,324.2c.3-5.1-7.5-5.8-12.5-5.5-5.5.4-9.8,2.8-9.6,5.5.2,2.7,2.1,10.5,8.2,9.3,6.1-1.2,13.5-3.3,13.9-9.3Z"/>
  <path class="st4" d="M314.3,317.1"/>
  <path class="st5" d="M246.7,371.5c4.8,18.5,11,13.8,15.2,12.4s19.7-15,26.2-17.4c6.5-2.4,17-3,22.7-2.9,5.7-.1,16.2.5,22.7,2.9,6.5,2.4,22,16.1,26.2,17.4,4.2,1.3,10.4,6.1,15.2-12.4"/>
  <g>
    <path class="st0" d="M172.5,503.2v1.6c-6.6,6.2-15.7,9.4-25,9.4-18.6,0-36-12.6-36-36s17.4-36,36-36,18.4,3.2,25,9.3v1.7l-9.3,9.1h-1.5c-3.3-3.1-8.9-5.3-14.2-5.3h-.2c-12.2,0-20,7.9-20,21.1s7.8,21.1,20,21.1h.2c5.6,0,11-2.7,13.9-5.5h1.5l9.5,9.4Z"/>
    <path class="st0" d="M195.2,514.2l-1-1v-69.9l1-1h37c16.1,0,24.7,8.9,24.7,22.3s-7.8,22.3-22.4,23.2l22.4,25.5-.9,1h-16l-2.1-1-21.7-25.5h-6.2v25.5l-1,1h-13.8ZM210.1,457v15.8h19.9c8.6,0,11.1-3.2,11.1-8.3s-2.9-7.4-11.1-7.4h-19.9Z"/>
    <path class="st0" d="M325.9,513.1l-4.5-13.1h-24.1l-4.5,13.1-1,1h-13.8l-1-1,23.7-69.9,1.1-1h15.2l1.1,1,23.7,69.9-1,1h-13.8l-1-1ZM309.3,464.3l-7,20.8h14.1l-7.1-20.8Z"/>
    <path class="st0" d="M362.8,514.2l-1-1v-69.9l1-1h30.9c16.1,0,24.7,8,24.7,20.8s-3.1,11.1-9,14.1c10.1,2.3,15.2,7.2,15.2,15.7,0,12.7-8.6,21.5-24.7,21.5h-37ZM377.7,457v13.7h10.3c9.9,0,14.5-1.6,14.5-7.8s-6.2-5.9-16.8-5.9h-8ZM377.7,485.6v13.7h17c9.6,0,13.9-2.2,13.9-6.6s-6.9-7.1-16.8-7.1h-14.2Z"/>
    <path class="st0" d="M507.8,443.2v12.8l-1,1h-45.8v13.7h36.6l1,1v12.8l-1,1h-36.6v13.7h45.8l1,1v12.8l-1,1h-60.7l-1-1v-69.9l1-1h60.7l1,1Z"/>
  </g>
  <g>
    <path class="st0" d="M124.5,578.1h-11.6l-.5-.5v-35l1-1h11c11,0,19.8,4.8,19.8,18.3s-8.8,18.3-19.8,18.3ZM120.4,549v21.5h3.4c7.8,0,12.3-2.9,12.3-10.8s-4.5-10.8-12.3-10.8h-3.4Z"/>
    <path class="st0" d="M187.2,542v6.5l-.5.5h-23.3v7h18.6l.5.5v6.5l-.5.5h-18.6v7h23.3l.5.5v6.5l-.5.5h-30.9l-.5-.5v-35.6l.5-.5h30.9l.5.5Z"/>
    <path class="st0" d="M212.9,578.1c-5.5,0-12-1.9-15.8-5.3v-.9l4.2-5.4h.8c2.5,2.4,7,4.1,10.7,4.1h.1c5.2,0,7.6-1.6,7.6-3.8s-1.8-3.3-7.2-3.8c-9.4-.8-15.8-4.7-15.8-11.3s6.5-10.2,16-10.2,11.3,1.3,15.1,4.7v.9l-4.2,5.5h-.8c-2.6-2.4-6.6-3.5-10-3.5h-.1c-5.5,0-7.8,1.2-7.8,3s1.9,2.8,8,3.4h.1c10.8.8,14.8,5.2,14.8,11.6s-5.8,11.1-15.7,11.1Z"/>
    <path class="st0" d="M280.3,578.1c-5.5,0-12-1.9-15.8-5.3v-.9l4.2-5.4h.8c2.5,2.4,7,4.1,10.7,4.1h.1c5.2,0,7.6-1.6,7.6-3.8s-1.8-3.3-7.2-3.8c-9.4-.8-15.8-4.7-15.8-11.3s6.5-10.2,16-10.2,11.3,1.3,15.1,4.7v.9l-4.2,5.5h-.8c-2.6-2.4-6.6-3.5-10-3.5h-.1c-5.5,0-7.8,1.2-7.8,3s1.9,2.8,8,3.4h.1c10.8.8,14.8,5.2,14.8,11.6s-5.8,11.1-15.7,11.1Z"/>
    <path class="st0" d="M337.5,572.5v.8c-3.4,3.1-8,4.8-12.7,4.8-9.5,0-18.3-6.4-18.3-18.3s8.8-18.3,18.3-18.3,9.4,1.6,12.7,4.7v.9l-4.7,4.6h-.8c-1.7-1.6-4.5-2.7-7.2-2.7h-.1c-6.2,0-10.2,4-10.2,10.8s4,10.8,10.2,10.8h.1c2.8,0,5.6-1.4,7.1-2.8h.8l4.8,4.8Z"/>
    <path class="st0" d="M380.5,542v6.5l-.5.5h-23.3v7h18.6l.5.5v6.5l-.5.5h-18.6v7h23.3l.5.5v6.5l-.5.5h-30.9l-.5-.5v-35.6l.5-.5h30.9l.5.5ZM357.8,530.2l.5-.2h6.5l.5.2,5.8,8.5-.5.2h-7l-.5-.2-5.2-8.5Z"/>
    <path class="st0" d="M424,542v35.6l-.5.5h-4.2l-.9-.6-18.1-21.1v21.2c0,0-.6.5-.6.5h-7l-.5-.5v-35.6l.6-.5h4.1l1,.5,18.1,21.2v-21.2l.6-.5h7l.5.5Z"/>
    <path class="st0" d="M467.5,542v6.5l-.5.5h-23.3v7h18.6l.5.5v6.5l-.5.5h-18.6v7h23.3l.5.5v6.5l-.5.5h-30.9l-.5-.5v-35.6l.5-.5h30.9l.5.5Z"/>
    <path class="st0" d="M493.1,578.1c-5.5,0-12-1.9-15.8-5.3v-.9l4.2-5.4h.8c2.5,2.4,7,4.1,10.7,4.1h.1c5.2,0,7.6-1.6,7.6-3.8s-1.8-3.3-7.2-3.8c-9.4-.8-15.8-4.7-15.8-11.3s6.5-10.2,16-10.2,11.3,1.3,15.1,4.7v.9l-4.2,5.5h-.8c-2.6-2.4-6.6-3.5-10-3.5h-.1c-5.5,0-7.8,1.2-7.8,3s1.9,2.8,8,3.4h.1c10.8.8,14.8,5.2,14.8,11.6s-5.8,11.1-15.7,11.1Z"/>
  </g>
</svg>
