<svg xmlns="http://www.w3.org/2000/svg" viewBox="0 0 145.4 59.2"><path fill="#01467E" d="M54 21.4S50.5 44 33.3 38.7c0-.1-3.7-17.7 20.7-17.3z"/><path fill="#FEA830" d="M28.7 59.2s-10.9-11.7 4.3-24c-.2-.3 4.6 16.6-4.3 24z"/><path fill="#01467E" d="M66.7 39.3l5.4 14.4h-3l-1.2-3.3h-5.7L61 53.8h-3l5.5-14.4 3.2-.1zM65 42.2L62.8 48h4.3L65 42.2zm7.3-3l3.8 10.9 3.8-10.9H83l-5.4 14.5h-3.1l-5.4-14.5h3.2zm14 14.6h-3V39.3h3v14.5zm15.6-8.1v2.4c0 .7-.1 1.5-.4 2.2-.3.7-.7 1.4-1.2 1.9-.6.6-1.3 1-2.1 1.3-.9.4-1.9.5-2.9.5-1.1 0-2.1-.2-3.1-.6-.9-.4-1.7-.9-2.4-1.6-.7-.7-1.2-1.5-1.5-2.4-.7-1.9-.7-4 0-5.9.4-.9.9-1.7 1.5-2.5.6-.7 1.4-1.3 2.3-1.7.9-.4 1.8-.6 2.8-.6.9 0 1.7.1 2.6.3.7.2 1.3.5 1.9.9.5.3 1 .8 1.4 1.2.3.4.6.9.8 1.3l-2.8 1c-.7-1.3-2.1-2.1-3.6-2.1-.5 0-.9.1-1.4.2-1.9.6-3.1 2.3-3 4.3 0 .7.1 1.5.3 2.2.2.6.5 1.2.9 1.7s.9.8 1.4 1c.6.2 1.2.4 1.8.4.6 0 1.2-.1 1.8-.3.5-.2.9-.4 1.3-.7.3-.3.6-.6.8-1 .2-.4.2-.7.3-1.1h-3.5v-2.6l6 .3zm4.3-1.6v9.7h-3.1V39.3h2.9l6.6 9.6v-9.6h2.9v14.4h-2.7l-6.6-9.6zm17.7 10.1c-1 0-2-.2-2.9-.6-.9-.4-1.7-.9-2.4-1.6-.7-.7-1.2-1.5-1.6-2.4-.8-1.9-.8-4 0-5.9.4-.9.9-1.7 1.6-2.4.7-.7 1.5-1.3 2.4-1.6 1.8-.8 3.9-.8 5.8 0 .9.4 1.7 1 2.4 1.6.7.7 1.2 1.5 1.6 2.4.8 1.9.8 4 0 5.9-.4.9-.9 1.7-1.6 2.4-.7.7-1.5 1.3-2.4 1.6-.9.4-1.9.6-2.9.6zm.1-2.8c.6 0 1.2-.1 1.8-.4.6-.3 1-.6 1.5-1.1.4-.5.8-1 1-1.5.2-.6.4-1.2.4-1.8 0-.6-.1-1.3-.4-1.9-.2-.6-.6-1.1-1-1.5-.4-.4-.9-.8-1.5-1.1-1.1-.5-2.4-.5-3.6 0-.6.3-1 .6-1.5 1.1-.4.5-.8 1-1 1.5-.2.6-.4 1.2-.4 1.9 0 .6.1 1.3.4 1.8.2.6.6 1.1 1 1.5.4.4.9.8 1.5 1.1.6.2 1.2.4 1.8.4zm11-7.3v9.7h-3.1V39.3h2.9l6.6 9.6v-9.6h2.9v14.4h-2.7l-6.6-9.6z"/><path fill="#60935D" d="M108.1 23.2c.2 0 .5-.1.7-.1l1.8-.6c.8-.4 1.5-1 2.1-1.7.7-.8 1.2-1.7 1.5-2.6.4-1.1.6-2.3.6-3.5 0-1.2-.2-2.5-.7-3.6-.4-1.1-1.1-2.1-2-3-.9-.9-2-1.6-3.2-2-1.4-.5-3-.8-4.5-.7H94.3v16.8c4.5.9 9.2 1.2 13.8 1zm-8.2-12.7h5c.5 0 1 .1 1.5.2.5.2 1 .4 1.4.8.4.4.8.8 1.1 1.3.3.6.5 1.2.4 1.8.1 1.1-.3 2.3-1.1 3.1-.7.6-1.6 1-2.6 1h-5.7v-8.2z"/><path fill="#01467E" d="M94.3 34.3l5.6.1V27c-1.9-.2-3.7-.4-5.6-.8v8.1zm15.8 0h6.5l-5.1-7.4c-2.2.2-4.3.3-6.3.3l4.9 7.1zm26.9-6.5c-1.6 1.1-3.5 1.6-5.4 1.6-1.3 0-2.5-.2-3.7-.7-1.1-.5-2.1-1.1-2.9-1.9-.6-.6-1.1-1.2-1.4-1.9-2 .5-3.9.9-5.8 1.2.8 1.8 1.9 3.3 3.3 4.7 2.8 2.7 6.6 4.2 10.5 4.2 1.6 0 3.1-.3 4.6-.8 1.5-.5 2.8-1.2 4.1-2 1.2-.8 2.3-1.8 3.2-3 .9-1.1 1.5-2.3 2-3.6l-5.3-2.1c-.6 1.7-1.7 3.2-3.2 4.3z"/><path fill="#60935D" d="M144.6 12.9c-.5-.9-1-1.7-1.6-2.4-1.8-2.3-4.3-4-7.1-4.9-1.4-.5-2.9-.7-4.4-.7-1.9 0-3.9.4-5.6 1.1-1.8.7-3.4 1.8-4.8 3.2-1.4 1.4-2.5 3-3.3 4.8-.8 1.9-1.3 4-1.3 6.1 0 .5 0 1 .1 1.5 1.8-.3 3.7-.7 5.7-1.2v-.3c0-1.4.2-2.8.8-4.1.5-1.2 1.2-2.2 2.1-3.1.9-.8 1.9-1.5 3-1.9 1.1-.4 2.3-.7 3.5-.7 1 0 2 .2 2.9.5.8.3 1.6.7 2.3 1.3.7.5 1.3 1.2 1.8 1.9.3.3.5.7.7 1l.6 1.2 5.3-1.9c-.2-.5-.4-1-.7-1.4zm-80.4 5.4v-5.1l2 5.1c1.8.1 3.6.2 5.4.5L66.9 5h-7.4v13.7c1.6-.3 3.1-.4 4.7-.4zm16.4 1.9l1.9.3 2.4-6.4V21c1.6.3 3.1.5 4.8.7V5.1h-6.8l-5.5 14.5c1 .2 2.1.4 3.2.6z"/><path fill="#01467E" d="M79.8 24.7c-1.4-.2-2.8-.5-4.1-.7l-1.2 3.2-1.2-3.6c-1.8-.3-3.6-.5-5.3-.6l4.4 11.4h4.8l3.7-9.5-1.1-.2zm-20.3-1.4v11.3h4.7V22.8c-1.6 0-3.1.2-4.7.5zm25.4 2.3v8.7h4.8v-8c-1.6-.3-3.2-.5-4.8-.7z"/><path fill="#60935D" d="M1 0s-9.9 34.3 32.2 38.6C33.5 38.8 41.1 2.1 1 0z"/></svg>
